{"glyphs":{"0":{"ha":926,"x_min":115,"x_max":922,"o":"m 346 922 l 692 922 l 692 807 l 807 807 l 807 692 l 922 692 l 922 231 l 807 231 l 807 115 l 692 115 l 692 0 l 346 0 l 346 115 l 231 115 l 231 231 l 115 231 l 115 576 l 231 576 l 231 807 l 346 807 l 346 922 m 461 807 l 461 576 l 346 576 l 346 115 l 576 115 l 576 231 l 692 231 l 692 807 l 461 807 z "},"1":{"ha":926,"x_min":231,"x_max":692,"o":"m 346 922 l 692 922 l 692 461 l 576 461 l 576 115 l 692 115 l 692 0 l 231 0 l 231 115 l 346 115 l 346 461 l 461 461 l 461 807 l 346 807 l 346 922 z "},"2":{"ha":926,"x_min":115,"x_max":922,"o":"m 346 922 l 807 922 l 807 807 l 922 807 l 922 461 l 807 461 l 807 346 l 461 346 l 461 231 l 346 231 l 346 115 l 692 115 l 692 231 l 807 231 l 807 0 l 115 0 l 115 231 l 231 231 l 231 346 l 346 346 l 346 461 l 576 461 l 576 576 l 692 576 l 692 807 l 461 807 l 461 692 l 231 692 l 231 807 l 346 807 l 346 922 z "},"3":{"ha":926,"x_min":115,"x_max":922,"o":"m 231 922 l 692 922 l 692 807 l 807 807 l 807 576 l 692 576 l 692 461 l 807 461 l 807 346 l 922 346 l 922 115 l 807 115 l 807 0 l 231 0 l 231 115 l 115 115 l 115 346 l 231 346 l 231 231 l 346 231 l 346 115 l 576 115 l 576 231 l 692 231 l 692 346 l 576 346 l 576 461 l 461 461 l 461 576 l 576 576 l 576 807 l 346 807 l 346 692 l 115 692 l 115 807 l 231 807 l 231 922 z "},"4":{"ha":926,"x_min":115,"x_max":807,"o":"m 115 922 l 346 922 l 346 346 l 461 346 l 461 576 l 576 576 l 576 922 l 807 922 l 807 576 l 692 576 l 692 346 l 807 346 l 807 231 l 692 231 l 692 0 l 461 0 l 461 231 l 115 231 l 115 922 z "},"5":{"ha":926,"x_min":115,"x_max":922,"o":"m 231 922 l 461 922 l 461 807 l 807 807 l 807 692 l 461 692 l 461 461 l 807 461 l 807 346 l 922 346 l 922 115 l 807 115 l 807 0 l 231 0 l 231 115 l 115 115 l 115 231 l 346 231 l 346 115 l 692 115 l 692 346 l 231 346 l 231 922 z "},"6":{"ha":926,"x_min":115,"x_max":922,"o":"m 346 922 l 692 922 l 692 807 l 461 807 l 461 692 l 346 692 l 346 576 l 807 576 l 807 461 l 922 461 l 922 115 l 807 115 l 807 0 l 346 0 l 346 115 l 231 115 l 231 231 l 115 231 l 115 692 l 231 692 l 231 807 l 346 807 l 346 922 m 346 461 l 346 231 l 461 231 l 461 115 l 692 115 l 692 346 l 576 346 l 576 461 l 346 461 z "},"7":{"ha":926,"x_min":115,"x_max":922,"o":"m 231 922 l 922 922 l 922 692 l 807 692 l 807 576 l 692 576 l 692 346 l 576 346 l 576 0 l 346 0 l 346 346 l 461 346 l 461 576 l 576 576 l 576 692 l 692 692 l 692 807 l 346 807 l 346 576 l 115 576 l 115 807 l 231 807 l 231 922 z "},"8":{"ha":926,"x_min":115,"x_max":922,"o":"m 346 922 l 692 922 l 692 807 l 807 807 l 807 576 l 692 576 l 692 461 l 807 461 l 807 346 l 922 346 l 922 115 l 807 115 l 807 0 l 231 0 l 231 115 l 115 115 l 115 346 l 231 346 l 231 461 l 346 461 l 346 576 l 231 576 l 231 807 l 346 807 l 346 922 m 461 807 l 461 576 l 576 576 l 576 807 l 461 807 m 461 461 l 461 346 l 346 346 l 346 115 l 576 115 l 576 231 l 692 231 l 692 461 l 461 461 z "},"9":{"ha":926,"x_min":115,"x_max":922,"o":"m 231 922 l 807 922 l 807 807 l 922 807 l 922 576 l 807 576 l 807 346 l 692 346 l 692 231 l 576 231 l 576 0 l 346 0 l 346 231 l 461 231 l 461 346 l 231 346 l 231 461 l 115 461 l 115 807 l 231 807 l 231 922 m 461 807 l 461 692 l 346 692 l 346 461 l 576 461 l 576 576 l 692 576 l 692 807 l 461 807 z "},"\u0000":{"ha":0,"x_min":0,"x_max":0,"o":""},"\f":{"ha":463,"x_min":0,"x_max":0,"o":""}," ":{"ha":461,"x_min":0,"x_max":0,"o":""},"!":{"ha":579,"x_min":115,"x_max":461,"o":"m 231 922 l 461 922 l 461 576 l 346 576 l 346 346 l 231 346 l 231 231 l 115 231 l 115 692 l 231 692 l 231 922 m 115 115 l 346 115 l 346 -115 l 115 -115 l 115 115 z "},"\"":{"ha":926,"x_min":115,"x_max":692,"o":"m 231 1038 l 346 1038 l 346 692 l 231 692 l 231 576 l 115 576 l 115 807 l 231 807 l 231 1038 m 576 1038 l 692 1038 l 692 692 l 576 692 l 576 576 l 461 576 l 461 807 l 576 807 l 576 1038 z "},"#":{"ha":1850,"x_min":231,"x_max":1729,"o":"m 922 1038 l 1038 1038 l 1038 922 l 1153 922 l 1153 807 l 1268 807 l 1268 692 l 1729 692 l 1729 576 l 1614 576 l 1614 461 l 1499 461 l 1499 346 l 1383 346 l 1383 115 l 1729 115 l 1729 -115 l 1614 -115 l 1614 -231 l 1153 -231 l 1153 -115 l 1038 -115 l 1038 0 l 922 0 l 922 -115 l 807 -115 l 807 -231 l 346 -231 l 346 -115 l 231 -115 l 231 115 l 576 115 l 576 346 l 461 346 l 461 461 l 346 461 l 346 576 l 231 576 l 231 692 l 692 692 l 692 807 l 807 807 l 807 922 l 922 922 l 922 1038 m 922 922 l 922 807 l 807 807 l 807 692 l 692 692 l 692 576 l 461 576 l 461 461 l 576 461 l 576 346 l 692 346 l 692 115 l 576 115 l 576 0 l 692 0 l 692 -115 l 807 -115 l 807 0 l 922 0 l 922 115 l 1038 115 l 1038 0 l 1153 0 l 1153 -115 l 1268 -115 l 1268 0 l 1383 0 l 1383 115 l 1268 115 l 1268 346 l 1383 346 l 1383 461 l 1499 461 l 1499 576 l 1268 576 l 1268 692 l 1153 692 l 1153 807 l 1038 807 l 1038 922 l 922 922 m 807 576 l 922 576 l 922 346 l 807 346 l 807 576 m 1038 576 l 1153 576 l 1153 346 l 1038 346 l 1038 576 z "},"&":{"ha":1850,"x_min":231,"x_max":1729,"o":"m 807 1038 l 1038 1038 l 1038 922 l 1153 922 l 1153 807 l 1268 807 l 1268 692 l 1383 692 l 1383 461 l 1268 461 l 1268 346 l 1499 346 l 1499 461 l 1729 461 l 1729 115 l 1614 115 l 1614 0 l 1499 0 l 1499 -115 l 1383 -115 l 1383 -231 l 922 -231 l 922 -115 l 1038 -115 l 1038 0 l 807 0 l 807 115 l 692 115 l 692 231 l 461 231 l 461 346 l 346 346 l 346 461 l 231 461 l 231 807 l 346 807 l 346 922 l 576 922 l 576 807 l 692 807 l 692 922 l 807 922 l 807 1038 m 807 922 l 807 807 l 922 807 l 922 576 l 807 576 l 807 692 l 576 692 l 576 807 l 346 807 l 346 461 l 461 461 l 461 346 l 807 346 l 807 115 l 1038 115 l 1038 0 l 1153 0 l 1153 -115 l 1268 -115 l 1268 0 l 1499 0 l 1499 115 l 1614 115 l 1614 346 l 1499 346 l 1499 231 l 1383 231 l 1383 115 l 1268 115 l 1268 231 l 1153 231 l 1153 461 l 1268 461 l 1268 692 l 1038 692 l 1038 922 l 807 922 m 807 461 l 922 461 l 922 346 l 807 346 l 807 461 z "},"'":{"ha":461,"x_min":231,"x_max":461,"o":"m 231 1153 l 461 1153 l 461 807 l 346 807 l 346 692 l 231 692 l 231 807 l 346 807 l 346 922 l 231 922 l 231 1153 z "},"*":{"ha":926,"x_min":115,"x_max":692,"o":"m 115 807 l 231 807 l 231 692 l 346 692 l 346 576 l 461 576 l 461 692 l 576 692 l 576 807 l 692 807 l 692 692 l 576 692 l 576 576 l 461 576 l 461 461 l 576 461 l 576 346 l 692 346 l 692 115 l 576 115 l 576 231 l 461 231 l 461 346 l 346 346 l 346 231 l 231 231 l 231 115 l 115 115 l 115 231 l 231 231 l 231 346 l 346 346 l 346 461 l 231 461 l 231 576 l 115 576 l 115 807 z "},"+":{"ha":1850,"x_min":346,"x_max":1614,"o":"m 692 1038 l 1268 1038 l 1268 692 l 1614 692 l 1614 115 l 1268 115 l 1268 -231 l 692 -231 l 692 115 l 346 115 l 346 692 l 692 692 l 692 1038 m 922 576 l 922 461 l 807 461 l 807 346 l 922 346 l 922 231 l 1038 231 l 1038 346 l 1153 346 l 1153 461 l 1038 461 l 1038 576 l 922 576 m 922 461 l 1038 461 l 1038 346 l 922 346 l 922 461 z "},",":{"ha":461,"x_min":115,"x_max":346,"o":"m 115 231 l 346 231 l 346 -115 l 231 -115 l 231 -231 l 115 -231 l 115 -115 l 231 -115 l 231 0 l 115 0 l 115 231 z "},"-":{"ha":1042,"x_min":115,"x_max":922,"o":"m 115 461 l 922 461 l 922 346 l 115 346 l 115 461 z "},".":{"ha":461,"x_min":115,"x_max":346,"o":"m 115 115 l 346 115 l 346 -115 l 115 -115 l 115 115 z "},":":{"ha":579,"x_min":231,"x_max":461,"o":"m 231 922 l 461 922 l 461 692 l 231 692 l 231 922 m 231 346 l 461 346 l 461 115 l 231 115 l 231 346 z "},";":{"ha":579,"x_min":231,"x_max":461,"o":"m 231 922 l 461 922 l 461 692 l 231 692 l 231 922 m 231 461 l 461 461 l 461 115 l 346 115 l 346 0 l 231 0 l 231 115 l 346 115 l 346 231 l 231 231 l 231 461 z "},"<":{"ha":926,"x_min":115,"x_max":922,"o":"m 692 1038 l 922 1038 l 922 -231 l 692 -231 l 692 -115 l 576 -115 l 576 0 l 461 0 l 461 115 l 346 115 l 346 231 l 231 231 l 231 346 l 115 346 l 115 461 l 231 461 l 231 576 l 346 576 l 346 692 l 461 692 l 461 807 l 576 807 l 576 922 l 692 922 l 692 1038 z "},"=":{"ha":926,"x_min":231,"x_max":807,"o":"m 231 807 l 807 807 l 807 692 l 231 692 l 231 807 m 231 461 l 807 461 l 807 346 l 231 346 l 231 461 z "},">":{"ha":926,"x_min":115,"x_max":922,"o":"m 115 1038 l 346 1038 l 346 922 l 461 922 l 461 807 l 576 807 l 576 692 l 692 692 l 692 576 l 807 576 l 807 461 l 922 461 l 922 346 l 807 346 l 807 231 l 692 231 l 692 115 l 576 115 l 576 0 l 461 0 l 461 -115 l 346 -115 l 346 -231 l 115 -231 l 115 1038 z "},"?":{"ha":808,"x_min":115,"x_max":807,"o":"m 231 922 l 692 922 l 692 807 l 807 807 l 807 461 l 576 461 l 576 231 l 346 231 l 346 461 l 461 461 l 461 576 l 576 576 l 576 807 l 346 807 l 346 576 l 115 576 l 115 807 l 231 807 l 231 922 m 346 115 l 576 115 l 576 -115 l 346 -115 l 346 115 z "},"A":{"ha":926,"x_min":115,"x_max":922,"o":"m 346 922 l 692 922 l 692 807 l 807 807 l 807 692 l 922 692 l 922 0 l 692 0 l 692 346 l 346 346 l 346 0 l 115 0 l 115 692 l 231 692 l 231 807 l 346 807 l 346 922 m 461 807 l 461 692 l 346 692 l 346 461 l 692 461 l 692 692 l 576 692 l 576 807 l 461 807 z "},"B":{"ha":926,"x_min":115,"x_max":922,"o":"m 115 922 l 807 922 l 807 807 l 922 807 l 922 576 l 807 576 l 807 461 l 922 461 l 922 115 l 807 115 l 807 0 l 115 0 l 115 115 l 231 115 l 231 807 l 115 807 l 115 922 m 461 807 l 461 576 l 692 576 l 692 807 l 461 807 m 461 461 l 461 115 l 692 115 l 692 461 l 461 461 z "},"C":{"ha":926,"x_min":115,"x_max":922,"o":"m 346 922 l 692 922 l 692 807 l 807 807 l 807 692 l 576 692 l 576 807 l 461 807 l 461 692 l 346 692 l 346 231 l 461 231 l 461 115 l 576 115 l 576 231 l 692 231 l 692 346 l 922 346 l 922 115 l 807 115 l 807 0 l 346 0 l 346 115 l 231 115 l 231 231 l 115 231 l 115 692 l 231 692 l 231 807 l 346 807 l 346 922 z "},"D":{"ha":926,"x_min":115,"x_max":922,"o":"m 115 922 l 692 922 l 692 807 l 807 807 l 807 692 l 922 692 l 922 231 l 807 231 l 807 115 l 692 115 l 692 0 l 115 0 l 115 461 l 231 461 l 231 807 l 115 807 l 115 922 m 461 807 l 461 461 l 346 461 l 346 115 l 576 115 l 576 231 l 692 231 l 692 692 l 576 692 l 576 807 l 461 807 z "},"E":{"ha":808,"x_min":115,"x_max":807,"o":"m 231 922 l 807 922 l 807 807 l 461 807 l 461 692 l 346 692 l 346 576 l 692 576 l 692 461 l 346 461 l 346 115 l 807 115 l 807 0 l 115 0 l 115 807 l 231 807 l 231 922 z "},"F":{"ha":808,"x_min":115,"x_max":807,"o":"m 231 922 l 807 922 l 807 807 l 346 807 l 346 461 l 692 461 l 692 346 l 346 346 l 346 0 l 231 0 l 231 115 l 115 115 l 115 807 l 231 807 l 231 922 z "},"G":{"ha":926,"x_min":115,"x_max":922,"o":"m 346 922 l 692 922 l 692 807 l 807 807 l 807 692 l 576 692 l 576 807 l 461 807 l 461 692 l 346 692 l 346 231 l 461 231 l 461 115 l 576 115 l 576 231 l 692 231 l 692 346 l 461 346 l 461 461 l 922 461 l 922 115 l 807 115 l 807 0 l 346 0 l 346 115 l 231 115 l 231 231 l 115 231 l 115 692 l 231 692 l 231 807 l 346 807 l 346 922 z "},"H":{"ha":926,"x_min":115,"x_max":922,"o":"m 231 922 l 461 922 l 461 807 l 346 807 l 346 461 l 692 461 l 692 922 l 922 922 l 922 0 l 692 0 l 692 346 l 346 346 l 346 0 l 115 0 l 115 807 l 231 807 l 231 922 z "},"I":{"ha":579,"x_min":115,"x_max":576,"o":"m 115 922 l 576 922 l 576 807 l 461 807 l 461 115 l 576 115 l 576 0 l 115 0 l 115 115 l 231 115 l 231 807 l 115 807 l 115 922 z "},"J":{"ha":926,"x_min":115,"x_max":922,"o":"m 576 922 l 922 922 l 922 231 l 807 231 l 807 115 l 692 115 l 692 0 l 231 0 l 231 115 l 115 115 l 115 461 l 231 461 l 231 576 l 346 576 l 346 115 l 576 115 l 576 231 l 692 231 l 692 807 l 576 807 l 576 922 z "},"K":{"ha":926,"x_min":115,"x_max":922,"o":"m 115 922 l 346 922 l 346 576 l 461 576 l 461 692 l 576 692 l 576 807 l 692 807 l 692 922 l 807 922 l 807 692 l 692 692 l 692 576 l 576 576 l 576 346 l 692 346 l 692 231 l 807 231 l 807 115 l 922 115 l 922 0 l 692 0 l 692 115 l 576 115 l 576 231 l 461 231 l 461 346 l 346 346 l 346 0 l 115 0 l 115 922 z "},"L":{"ha":808,"x_min":115,"x_max":807,"o":"m 115 922 l 346 922 l 346 115 l 807 115 l 807 0 l 115 0 l 115 922 z "},"M":{"ha":926,"x_min":115,"x_max":922,"o":"m 115 922 l 231 922 l 231 807 l 346 807 l 346 692 l 461 692 l 461 576 l 576 576 l 576 692 l 692 692 l 692 807 l 807 807 l 807 922 l 922 922 l 922 0 l 692 0 l 692 461 l 576 461 l 576 346 l 461 346 l 461 461 l 346 461 l 346 0 l 231 0 l 231 115 l 115 115 l 115 922 z "},"N":{"ha":926,"x_min":115,"x_max":922,"o":"m 115 922 l 231 922 l 231 807 l 346 807 l 346 692 l 461 692 l 461 461 l 576 461 l 576 346 l 692 346 l 692 922 l 922 922 l 922 0 l 692 0 l 692 115 l 576 115 l 576 231 l 461 231 l 461 346 l 346 346 l 346 0 l 115 0 l 115 922 z "},"O":{"ha":926,"x_min":115,"x_max":922,"o":"m 346 922 l 692 922 l 692 807 l 807 807 l 807 692 l 922 692 l 922 115 l 807 115 l 807 0 l 346 0 l 346 115 l 231 115 l 231 231 l 115 231 l 115 692 l 231 692 l 231 807 l 346 807 l 346 922 m 461 807 l 461 692 l 346 692 l 346 231 l 461 231 l 461 115 l 576 115 l 576 231 l 692 231 l 692 692 l 576 692 l 576 807 l 461 807 z "},"P":{"ha":926,"x_min":115,"x_max":922,"o":"m 231 922 l 807 922 l 807 807 l 922 807 l 922 461 l 807 461 l 807 346 l 346 346 l 346 0 l 115 0 l 115 807 l 231 807 l 231 922 m 461 807 l 461 692 l 346 692 l 346 461 l 576 461 l 576 576 l 692 576 l 692 807 l 461 807 z "},"Q":{"ha":926,"x_min":115,"x_max":922,"o":"m 346 922 l 692 922 l 692 807 l 807 807 l 807 692 l 922 692 l 922 231 l 807 231 l 807 0 l 922 0 l 922 -115 l 692 -115 l 692 0 l 346 0 l 346 115 l 231 115 l 231 231 l 115 231 l 115 692 l 231 692 l 231 807 l 346 807 l 346 922 m 461 807 l 461 692 l 346 692 l 346 231 l 461 231 l 461 115 l 576 115 l 576 231 l 461 231 l 461 346 l 692 346 l 692 692 l 576 692 l 576 807 l 461 807 z "},"R":{"ha":926,"x_min":115,"x_max":922,"o":"m 115 922 l 692 922 l 692 807 l 807 807 l 807 692 l 922 692 l 922 461 l 807 461 l 807 346 l 692 346 l 692 231 l 807 231 l 807 115 l 922 115 l 922 0 l 692 0 l 692 115 l 576 115 l 576 231 l 461 231 l 461 346 l 346 346 l 346 0 l 115 0 l 115 922 m 346 807 l 346 461 l 576 461 l 576 576 l 692 576 l 692 692 l 576 692 l 576 807 l 346 807 z "},"S":{"ha":926,"x_min":115,"x_max":922,"o":"m 346 922 l 807 922 l 807 807 l 922 807 l 922 692 l 692 692 l 692 807 l 461 807 l 461 692 l 576 692 l 576 576 l 692 576 l 692 461 l 807 461 l 807 346 l 922 346 l 922 115 l 807 115 l 807 0 l 231 0 l 231 115 l 115 115 l 115 231 l 346 231 l 346 115 l 576 115 l 576 346 l 461 346 l 461 461 l 346 461 l 346 576 l 231 576 l 231 807 l 346 807 l 346 922 z "},"T":{"ha":926,"x_min":115,"x_max":922,"o":"m 115 922 l 922 922 l 922 807 l 692 807 l 692 576 l 576 576 l 576 0 l 346 0 l 346 692 l 461 692 l 461 807 l 115 807 l 115 922 z "},"U":{"ha":926,"x_min":115,"x_max":922,"o":"m 231 922 l 461 922 l 461 692 l 346 692 l 346 115 l 576 115 l 576 231 l 692 231 l 692 922 l 807 922 l 807 807 l 922 807 l 922 231 l 807 231 l 807 115 l 692 115 l 692 0 l 231 0 l 231 115 l 115 115 l 115 692 l 231 692 l 231 922 z "},"V":{"ha":926,"x_min":115,"x_max":922,"o":"m 115 922 l 346 922 l 346 576 l 461 576 l 461 231 l 576 231 l 576 461 l 692 461 l 692 922 l 922 922 l 922 461 l 807 461 l 807 231 l 692 231 l 692 115 l 576 115 l 576 0 l 461 0 l 461 115 l 346 115 l 346 346 l 231 346 l 231 692 l 115 692 l 115 922 z "},"W":{"ha":926,"x_min":115,"x_max":922,"o":"m 115 922 l 346 922 l 346 346 l 461 346 l 461 576 l 576 576 l 576 346 l 692 346 l 692 922 l 807 922 l 807 807 l 922 807 l 922 115 l 807 115 l 807 0 l 692 0 l 692 115 l 576 115 l 576 231 l 461 231 l 461 115 l 346 115 l 346 0 l 231 0 l 231 115 l 115 115 l 115 922 z "},"X":{"ha":926,"x_min":115,"x_max":922,"o":"m 115 922 l 346 922 l 346 692 l 461 692 l 461 576 l 576 576 l 576 692 l 692 692 l 692 807 l 807 807 l 807 922 l 922 922 l 922 576 l 807 576 l 807 461 l 692 461 l 692 346 l 807 346 l 807 231 l 922 231 l 922 0 l 692 0 l 692 231 l 576 231 l 576 346 l 461 346 l 461 231 l 346 231 l 346 115 l 231 115 l 231 0 l 115 0 l 115 231 l 231 231 l 231 346 l 346 346 l 346 576 l 231 576 l 231 692 l 115 692 l 115 922 z "},"Y":{"ha":926,"x_min":115,"x_max":922,"o":"m 115 922 l 231 922 l 231 807 l 346 807 l 346 692 l 461 692 l 461 576 l 576 576 l 576 692 l 692 692 l 692 807 l 807 807 l 807 922 l 922 922 l 922 692 l 807 692 l 807 576 l 692 576 l 692 461 l 576 461 l 576 0 l 346 0 l 346 576 l 231 576 l 231 692 l 115 692 l 115 922 z "},"Z":{"ha":926,"x_min":115,"x_max":922,"o":"m 115 922 l 461 922 l 461 807 l 922 807 l 922 576 l 807 576 l 807 461 l 692 461 l 692 346 l 576 346 l 576 231 l 461 231 l 461 115 l 922 115 l 922 0 l 115 0 l 115 231 l 231 231 l 231 346 l 346 346 l 346 461 l 461 461 l 461 576 l 576 576 l 576 692 l 115 692 l 115 922 z "},"[":{"ha":926,"x_min":0,"x_max":807,"o":"m 115 1038 l 807 1038 l 807 692 l 346 692 l 346 231 l 0 231 l 0 922 l 115 922 l 115 1038 m 115 922 l 115 346 l 231 346 l 231 807 l 692 807 l 692 922 l 115 922 z "},"]":{"ha":926,"x_min":115,"x_max":922,"o":"m 576 576 l 922 576 l 922 -115 l 807 -115 l 807 -231 l 115 -231 l 115 115 l 576 115 l 576 576 m 692 461 l 692 0 l 231 0 l 231 -115 l 807 -115 l 807 461 l 692 461 z "},"`":{"ha":926,"x_min":115,"x_max":922,"o":"m 346 1038 l 692 1038 l 692 346 l 922 346 l 922 115 l 807 115 l 807 0 l 692 0 l 692 -115 l 576 -115 l 576 -231 l 461 -231 l 461 -115 l 346 -115 l 346 0 l 231 0 l 231 115 l 115 115 l 115 346 l 346 346 l 346 1038 m 461 922 l 461 231 l 231 231 l 231 115 l 346 115 l 346 0 l 461 0 l 461 -115 l 576 -115 l 576 0 l 692 0 l 692 115 l 807 115 l 807 231 l 576 231 l 576 922 l 461 922 z "},"a":{"ha":926,"x_min":115,"x_max":922,"o":"m 346 692 l 692 692 l 692 576 l 807 576 l 807 115 l 922 115 l 922 0 l 692 0 l 692 115 l 576 115 l 576 0 l 231 0 l 231 115 l 115 115 l 115 346 l 231 346 l 231 461 l 576 461 l 576 576 l 346 576 l 346 692 m 346 346 l 346 115 l 461 115 l 461 231 l 576 231 l 576 346 l 346 346 z "},"b":{"ha":926,"x_min":115,"x_max":922,"o":"m 115 1038 l 346 1038 l 346 922 l 461 922 l 461 692 l 807 692 l 807 576 l 922 576 l 922 115 l 807 115 l 807 0 l 461 0 l 461 115 l 346 115 l 346 0 l 115 0 l 115 115 l 231 115 l 231 922 l 115 922 l 115 1038 m 461 576 l 461 231 l 576 231 l 576 115 l 692 115 l 692 576 l 461 576 z "},"c":{"ha":926,"x_min":115,"x_max":922,"o":"m 231 692 l 807 692 l 807 576 l 922 576 l 922 461 l 692 461 l 692 576 l 461 576 l 461 461 l 346 461 l 346 115 l 576 115 l 576 231 l 922 231 l 922 115 l 807 115 l 807 0 l 231 0 l 231 115 l 115 115 l 115 576 l 231 576 l 231 692 z "},"d":{"ha":926,"x_min":115,"x_max":922,"o":"m 576 1038 l 807 1038 l 807 922 l 922 922 l 922 576 l 807 576 l 807 115 l 922 115 l 922 0 l 692 0 l 692 115 l 576 115 l 576 0 l 231 0 l 231 115 l 115 115 l 115 576 l 231 576 l 231 692 l 576 692 l 576 576 l 692 576 l 692 922 l 576 922 l 576 1038 m 346 576 l 346 115 l 461 115 l 461 231 l 576 231 l 576 461 l 461 461 l 461 576 l 346 576 z "},"e":{"ha":808,"x_min":115,"x_max":807,"o":"m 231 692 l 692 692 l 692 576 l 807 576 l 807 346 l 346 346 l 346 115 l 576 115 l 576 231 l 807 231 l 807 115 l 692 115 l 692 0 l 231 0 l 231 115 l 115 115 l 115 576 l 231 576 l 231 692 m 346 576 l 346 461 l 576 461 l 576 576 l 346 576 z "},"f":{"ha":808,"x_min":115,"x_max":807,"o":"m 346 1038 l 692 1038 l 692 922 l 807 922 l 807 807 l 576 807 l 576 922 l 461 922 l 461 692 l 807 692 l 807 576 l 461 576 l 461 115 l 576 115 l 576 0 l 346 0 l 346 115 l 231 115 l 231 576 l 115 576 l 115 692 l 231 692 l 231 922 l 346 922 l 346 1038 z "},"g":{"ha":926,"x_min":115,"x_max":922,"o":"m 576 807 l 807 807 l 807 576 l 922 576 l 922 461 l 807 461 l 807 346 l 692 346 l 692 231 l 807 231 l 807 115 l 922 115 l 922 -115 l 807 -115 l 807 -231 l 231 -231 l 231 -115 l 115 -115 l 115 115 l 231 115 l 231 231 l 461 231 l 461 346 l 346 346 l 346 461 l 231 461 l 231 576 l 346 576 l 346 692 l 576 692 l 576 807 m 461 576 l 461 461 l 692 461 l 692 576 l 461 576 m 346 115 l 346 -115 l 692 -115 l 692 115 l 346 115 z "},"h":{"ha":926,"x_min":115,"x_max":922,"o":"m 115 1038 l 346 1038 l 346 922 l 461 922 l 461 692 l 807 692 l 807 576 l 922 576 l 922 346 l 807 346 l 807 115 l 922 115 l 922 0 l 692 0 l 692 115 l 576 115 l 576 346 l 692 346 l 692 576 l 461 576 l 461 231 l 346 231 l 346 0 l 115 0 l 115 231 l 231 231 l 231 922 l 115 922 l 115 1038 z "},"i":{"ha":461,"x_min":115,"x_max":461,"o":"m 231 922 l 461 922 l 461 807 l 231 807 l 231 922 m 115 692 l 346 692 l 346 115 l 461 115 l 461 0 l 231 0 l 231 115 l 115 115 l 115 692 z "},"j":{"ha":808,"x_min":115,"x_max":807,"o":"m 576 922 l 807 922 l 807 807 l 576 807 l 576 922 m 576 692 l 807 692 l 807 0 l 692 0 l 692 -115 l 576 -115 l 576 -231 l 231 -231 l 231 -115 l 115 -115 l 115 115 l 346 115 l 346 -115 l 461 -115 l 461 0 l 576 0 l 576 692 z "},"k":{"ha":926,"x_min":115,"x_max":922,"o":"m 115 1038 l 346 1038 l 346 461 l 461 461 l 461 576 l 576 576 l 576 692 l 807 692 l 807 576 l 692 576 l 692 461 l 576 461 l 576 346 l 692 346 l 692 231 l 807 231 l 807 115 l 922 115 l 922 0 l 692 0 l 692 115 l 576 115 l 576 231 l 461 231 l 461 0 l 231 0 l 231 461 l 115 461 l 115 1038 z "},"l":{"ha":461,"x_min":115,"x_max":461,"o":"m 231 1038 l 461 1038 l 461 807 l 346 807 l 346 115 l 461 115 l 461 0 l 231 0 l 231 115 l 115 115 l 115 807 l 231 807 l 231 1038 z "},"m":{"ha":926,"x_min":115,"x_max":922,"o":"m 115 807 l 231 807 l 231 692 l 461 692 l 461 576 l 576 576 l 576 692 l 807 692 l 807 576 l 922 576 l 922 0 l 692 0 l 692 461 l 576 461 l 576 0 l 461 0 l 461 461 l 346 461 l 346 0 l 115 0 l 115 807 z "},"n":{"ha":926,"x_min":115,"x_max":922,"o":"m 115 692 l 346 692 l 346 576 l 461 576 l 461 692 l 692 692 l 692 576 l 807 576 l 807 115 l 922 115 l 922 0 l 692 0 l 692 115 l 576 115 l 576 461 l 461 461 l 461 0 l 231 0 l 231 576 l 115 576 l 115 692 z "},"o":{"ha":926,"x_min":115,"x_max":922,"o":"m 346 692 l 692 692 l 692 576 l 807 576 l 807 461 l 922 461 l 922 231 l 807 231 l 807 115 l 692 115 l 692 0 l 231 0 l 231 115 l 115 115 l 115 461 l 231 461 l 231 576 l 346 576 l 346 692 m 461 576 l 461 461 l 346 461 l 346 115 l 576 115 l 576 231 l 692 231 l 692 461 l 576 461 l 576 576 l 461 576 z "},"p":{"ha":926,"x_min":115,"x_max":922,"o":"m 115 692 l 346 692 l 346 576 l 461 576 l 461 692 l 807 692 l 807 576 l 922 576 l 922 231 l 807 231 l 807 115 l 461 115 l 461 0 l 346 0 l 346 -231 l 115 -231 l 115 115 l 231 115 l 231 576 l 115 576 l 115 692 m 576 576 l 576 461 l 461 461 l 461 231 l 692 231 l 692 576 l 576 576 z "},"q":{"ha":926,"x_min":115,"x_max":922,"o":"m 346 692 l 692 692 l 692 576 l 807 576 l 807 692 l 922 692 l 922 346 l 807 346 l 807 231 l 692 231 l 692 -115 l 807 -115 l 807 -231 l 576 -231 l 576 -115 l 461 -115 l 461 115 l 231 115 l 231 231 l 115 231 l 115 461 l 231 461 l 231 576 l 346 576 l 346 692 m 461 576 l 461 461 l 346 461 l 346 231 l 461 231 l 461 346 l 576 346 l 576 576 l 461 576 z "},"r":{"ha":808,"x_min":115,"x_max":807,"o":"m 115 692 l 346 692 l 346 576 l 461 576 l 461 692 l 692 692 l 692 576 l 807 576 l 807 346 l 576 346 l 576 461 l 461 461 l 461 0 l 231 0 l 231 576 l 115 576 l 115 692 z "},"s":{"ha":808,"x_min":115,"x_max":807,"o":"m 346 807 l 692 807 l 692 692 l 807 692 l 807 576 l 576 576 l 576 692 l 461 692 l 461 461 l 692 461 l 692 346 l 807 346 l 807 115 l 692 115 l 692 0 l 231 0 l 231 115 l 115 115 l 115 231 l 346 231 l 346 115 l 576 115 l 576 346 l 346 346 l 346 461 l 231 461 l 231 692 l 346 692 l 346 807 z "},"t":{"ha":808,"x_min":115,"x_max":807,"o":"m 231 922 l 461 922 l 461 692 l 692 692 l 692 576 l 461 576 l 461 115 l 576 115 l 576 231 l 807 231 l 807 115 l 692 115 l 692 0 l 346 0 l 346 115 l 231 115 l 231 576 l 115 576 l 115 692 l 231 692 l 231 922 z "},"u":{"ha":926,"x_min":115,"x_max":922,"o":"m 115 692 l 346 692 l 346 115 l 461 115 l 461 231 l 576 231 l 576 576 l 807 576 l 807 231 l 922 231 l 922 0 l 692 0 l 692 115 l 576 115 l 576 0 l 231 0 l 231 115 l 115 115 l 115 692 z "},"v":{"ha":926,"x_min":115,"x_max":922,"o":"m 692 807 l 922 807 l 922 576 l 807 576 l 807 346 l 692 346 l 692 115 l 576 115 l 576 0 l 461 0 l 461 115 l 346 115 l 346 231 l 231 231 l 231 461 l 115 461 l 115 692 l 346 692 l 346 461 l 461 461 l 461 346 l 576 346 l 576 576 l 692 576 l 692 807 z "},"w":{"ha":926,"x_min":115,"x_max":922,"o":"m 231 692 l 461 692 l 461 576 l 346 576 l 346 231 l 461 231 l 461 461 l 576 461 l 576 231 l 692 231 l 692 692 l 922 692 l 922 115 l 807 115 l 807 0 l 576 0 l 576 115 l 461 115 l 461 0 l 231 0 l 231 115 l 115 115 l 115 576 l 231 576 l 231 692 z "},"x":{"ha":926,"x_min":115,"x_max":922,"o":"m 807 807 l 922 807 l 922 576 l 807 576 l 807 461 l 692 461 l 692 346 l 576 346 l 576 231 l 692 231 l 692 115 l 922 115 l 922 0 l 576 0 l 576 115 l 346 115 l 346 0 l 115 0 l 115 115 l 231 115 l 231 231 l 346 231 l 346 461 l 231 461 l 231 576 l 115 576 l 115 692 l 346 692 l 346 576 l 461 576 l 461 461 l 576 461 l 576 576 l 692 576 l 692 692 l 807 692 l 807 807 z "},"y":{"ha":926,"x_min":0,"x_max":922,"o":"m 115 807 l 346 807 l 346 692 l 461 692 l 461 461 l 576 461 l 576 576 l 692 576 l 692 807 l 922 807 l 922 461 l 807 461 l 807 231 l 692 231 l 692 115 l 576 115 l 576 0 l 461 0 l 461 -115 l 231 -115 l 231 -231 l 0 -231 l 0 0 l 231 0 l 231 115 l 346 115 l 346 231 l 461 231 l 461 346 l 346 346 l 346 461 l 231 461 l 231 692 l 115 692 l 115 807 z "},"z":{"ha":926,"x_min":115,"x_max":922,"o":"m 231 692 l 692 692 l 692 576 l 922 576 l 922 461 l 807 461 l 807 346 l 692 346 l 692 231 l 576 231 l 576 115 l 692 115 l 692 0 l 922 0 l 922 -115 l 576 -115 l 576 0 l 115 0 l 115 115 l 231 115 l 231 231 l 346 231 l 346 346 l 461 346 l 461 461 l 576 461 l 576 576 l 231 576 l 231 692 z "},"{":{"ha":1850,"x_min":115,"x_max":1729,"o":"m 461 1038 l 692 1038 l 692 922 l 807 922 l 807 1038 l 1153 1038 l 1153 922 l 1383 922 l 1383 807 l 1499 807 l 1499 692 l 1614 692 l 1614 576 l 1729 576 l 1729 231 l 1614 231 l 1614 0 l 1499 0 l 1499 -115 l 1268 -115 l 1268 -231 l 692 -231 l 692 -115 l 461 -115 l 461 0 l 346 0 l 346 115 l 231 115 l 231 231 l 115 231 l 115 692 l 231 692 l 231 807 l 346 807 l 346 922 l 461 922 l 461 1038 m 461 922 l 461 807 l 346 807 l 346 692 l 231 692 l 231 231 l 346 231 l 346 115 l 461 115 l 461 0 l 692 0 l 692 -115 l 1268 -115 l 1268 0 l 1499 0 l 1499 115 l 1383 115 l 1383 231 l 1614 231 l 1614 576 l 1499 576 l 1499 692 l 1383 692 l 1383 807 l 1153 807 l 1153 922 l 807 922 l 807 807 l 692 807 l 692 922 l 461 922 m 692 692 l 1153 692 l 1153 576 l 1268 576 l 1268 346 l 1038 346 l 1038 231 l 807 231 l 807 346 l 922 346 l 922 461 l 1153 461 l 1153 576 l 692 576 l 692 461 l 576 461 l 576 576 l 692 576 l 692 692 m 807 115 l 1038 115 l 1038 0 l 807 0 l 807 115 z "},"|":{"ha":1850,"x_min":115,"x_max":1729,"o":"m 461 1038 l 692 1038 l 692 922 l 807 922 l 807 1038 l 1153 1038 l 1153 922 l 1383 922 l 1383 807 l 1499 807 l 1499 692 l 1614 692 l 1614 576 l 1729 576 l 1729 231 l 1614 231 l 1614 0 l 1499 0 l 1499 -115 l 1268 -115 l 1268 -231 l 576 -231 l 576 -115 l 346 -115 l 346 0 l 231 0 l 231 115 l 115 115 l 115 346 l 231 346 l 231 461 l 115 461 l 115 692 l 231 692 l 231 807 l 346 807 l 346 922 l 461 922 l 461 1038 m 461 922 l 461 807 l 346 807 l 346 692 l 231 692 l 231 461 l 346 461 l 346 346 l 231 346 l 231 115 l 346 115 l 346 0 l 576 0 l 576 -115 l 1268 -115 l 1268 0 l 1499 0 l 1499 231 l 1614 231 l 1614 576 l 1383 576 l 1383 807 l 1153 807 l 1153 922 l 807 922 l 807 807 l 692 807 l 692 922 l 461 922 m 807 807 l 1038 807 l 1038 692 l 1153 692 l 1153 576 l 1268 576 l 1268 461 l 1383 461 l 1383 346 l 1153 346 l 1153 0 l 692 0 l 692 346 l 461 346 l 461 461 l 576 461 l 576 576 l 692 576 l 692 692 l 807 692 l 807 807 z "},"}":{"ha":1850,"x_min":231,"x_max":1729,"o":"m 807 1038 l 1153 1038 l 1153 922 l 1383 922 l 1383 807 l 1499 807 l 1499 692 l 1614 692 l 1614 461 l 1729 461 l 1729 -231 l 231 -231 l 231 461 l 346 461 l 346 692 l 461 692 l 461 807 l 576 807 l 576 922 l 807 922 l 807 1038 m 807 922 l 807 807 l 576 807 l 576 692 l 461 692 l 461 461 l 346 461 l 346 115 l 1614 115 l 1614 461 l 1499 461 l 1499 692 l 1383 692 l 1383 807 l 1153 807 l 1153 922 l 807 922 m 807 807 l 1153 807 l 1153 576 l 1038 576 l 1038 461 l 922 461 l 922 576 l 807 576 l 807 807 m 922 346 l 1038 346 l 1038 231 l 922 231 l 922 346 m 346 0 l 346 -115 l 461 -115 l 461 0 l 346 0 m 576 0 l 576 -115 l 692 -115 l 692 0 l 576 0 m 922 0 l 922 -115 l 1614 -115 l 1614 0 l 922 0 z "},"~":{"ha":926,"x_min":115,"x_max":922,"o":"m 231 461 l 576 461 l 576 346 l 692 346 l 692 231 l 807 231 l 807 346 l 922 346 l 922 231 l 807 231 l 807 115 l 461 115 l 461 231 l 346 231 l 346 346 l 231 346 l 231 231 l 115 231 l 115 346 l 231 346 l 231 461 z "},"À":{"ha":926,"x_min":115,"x_max":922,"o":"m 461 1153 l 576 1153 l 576 1038 l 692 1038 l 692 807 l 807 807 l 807 576 l 922 576 l 922 0 l 692 0 l 692 346 l 346 346 l 346 115 l 115 115 l 115 576 l 231 576 l 231 807 l 346 807 l 346 922 l 576 922 l 576 1038 l 461 1038 l 461 1153 m 461 807 l 461 692 l 346 692 l 346 461 l 692 461 l 692 692 l 576 692 l 576 807 l 461 807 z "},"Â":{"ha":926,"x_min":115,"x_max":922,"o":"m 346 1153 l 576 1153 l 576 1038 l 692 1038 l 692 807 l 807 807 l 807 576 l 922 576 l 922 0 l 692 0 l 692 346 l 346 346 l 346 115 l 115 115 l 115 576 l 231 576 l 231 807 l 346 807 l 346 922 l 231 922 l 231 1038 l 346 1038 l 346 1153 m 346 1038 l 346 922 l 576 922 l 576 1038 l 346 1038 m 461 807 l 461 692 l 346 692 l 346 461 l 692 461 l 692 692 l 576 692 l 576 807 l 461 807 z "},"Ä":{"ha":926,"x_min":115,"x_max":922,"o":"m 231 1153 l 461 1153 l 461 1038 l 231 1038 l 231 1153 m 576 1153 l 807 1153 l 807 1038 l 576 1038 l 576 1153 m 346 922 l 692 922 l 692 807 l 807 807 l 807 692 l 922 692 l 922 0 l 692 0 l 692 346 l 346 346 l 346 115 l 115 115 l 115 692 l 231 692 l 231 807 l 346 807 l 346 922 m 461 807 l 461 692 l 346 692 l 346 461 l 692 461 l 692 692 l 576 692 l 576 807 l 461 807 z "},"Ç":{"ha":926,"x_min":115,"x_max":922,"o":"m 346 922 l 807 922 l 807 807 l 922 807 l 922 692 l 692 692 l 692 807 l 461 807 l 461 692 l 346 692 l 346 231 l 461 231 l 461 115 l 576 115 l 576 231 l 692 231 l 692 346 l 922 346 l 922 115 l 807 115 l 807 0 l 692 0 l 692 -115 l 576 -115 l 576 -231 l 231 -231 l 231 -115 l 461 -115 l 461 0 l 346 0 l 346 115 l 231 115 l 231 231 l 115 231 l 115 692 l 231 692 l 231 807 l 346 807 l 346 922 z "},"È":{"ha":926,"x_min":115,"x_max":922,"o":"m 346 1153 l 576 1153 l 576 1038 l 692 1038 l 692 922 l 461 922 l 461 1038 l 346 1038 l 346 1153 m 231 807 l 807 807 l 807 692 l 346 692 l 346 461 l 692 461 l 692 346 l 346 346 l 346 115 l 922 115 l 922 0 l 115 0 l 115 692 l 231 692 l 231 807 z "},"É":{"ha":926,"x_min":115,"x_max":922,"o":"m 461 1153 l 692 1153 l 692 1038 l 576 1038 l 576 922 l 346 922 l 346 1038 l 461 1038 l 461 1153 m 231 807 l 807 807 l 807 692 l 461 692 l 461 576 l 346 576 l 346 461 l 692 461 l 692 346 l 346 346 l 346 115 l 922 115 l 922 0 l 115 0 l 115 692 l 231 692 l 231 807 z "},"Ê":{"ha":926,"x_min":115,"x_max":922,"o":"m 346 1153 l 692 1153 l 692 1038 l 807 1038 l 807 922 l 576 922 l 576 1038 l 461 1038 l 461 922 l 231 922 l 231 1038 l 346 1038 l 346 1153 m 231 807 l 807 807 l 807 692 l 461 692 l 461 576 l 346 576 l 346 461 l 692 461 l 692 346 l 346 346 l 346 115 l 922 115 l 922 0 l 115 0 l 115 692 l 231 692 l 231 807 z "},"Î":{"ha":694,"x_min":115,"x_max":692,"o":"m 231 1153 l 576 1153 l 576 1038 l 692 1038 l 692 922 l 461 922 l 461 1038 l 346 1038 l 346 922 l 115 922 l 115 1038 l 231 1038 l 231 1153 m 231 807 l 692 807 l 692 692 l 576 692 l 576 346 l 461 346 l 461 115 l 576 115 l 576 0 l 115 0 l 115 115 l 231 115 l 231 346 l 346 346 l 346 692 l 231 692 l 231 807 z "},"Ï":{"ha":694,"x_min":115,"x_max":692,"o":"m 115 1153 l 346 1153 l 346 1038 l 115 1038 l 115 1153 m 461 1153 l 692 1153 l 692 1038 l 461 1038 l 461 1153 m 231 807 l 692 807 l 692 692 l 576 692 l 576 461 l 461 461 l 461 115 l 576 115 l 576 0 l 115 0 l 115 115 l 231 115 l 231 461 l 346 461 l 346 692 l 231 692 l 231 807 z "},"Ô":{"ha":926,"x_min":115,"x_max":922,"o":"m 346 1153 l 692 1153 l 692 1038 l 807 1038 l 807 922 l 576 922 l 576 1038 l 461 1038 l 461 922 l 231 922 l 231 1038 l 346 1038 l 346 1153 m 346 807 l 692 807 l 692 692 l 807 692 l 807 576 l 922 576 l 922 115 l 807 115 l 807 0 l 346 0 l 346 115 l 231 115 l 231 231 l 115 231 l 115 576 l 231 576 l 231 692 l 346 692 l 346 807 m 461 692 l 461 576 l 346 576 l 346 231 l 461 231 l 461 115 l 576 115 l 576 231 l 692 231 l 692 576 l 576 576 l 576 692 l 461 692 z "},"Ö":{"ha":926,"x_min":115,"x_max":922,"o":"m 231 1153 l 461 1153 l 461 1038 l 231 1038 l 231 1153 m 576 1153 l 807 1153 l 807 1038 l 576 1038 l 576 1153 m 346 922 l 692 922 l 692 807 l 807 807 l 807 692 l 922 692 l 922 115 l 807 115 l 807 0 l 346 0 l 346 115 l 231 115 l 231 231 l 115 231 l 115 692 l 231 692 l 231 807 l 346 807 l 346 922 m 461 807 l 461 692 l 346 692 l 346 231 l 461 231 l 461 115 l 576 115 l 576 231 l 692 231 l 692 692 l 576 692 l 576 807 l 461 807 z "},"Ù":{"ha":926,"x_min":115,"x_max":922,"o":"m 346 1153 l 576 1153 l 576 1038 l 692 1038 l 692 922 l 461 922 l 461 1038 l 346 1038 l 346 1153 m 231 807 l 461 807 l 461 576 l 346 576 l 346 115 l 576 115 l 576 231 l 692 231 l 692 807 l 922 807 l 922 231 l 807 231 l 807 115 l 692 115 l 692 0 l 231 0 l 231 115 l 115 115 l 115 576 l 231 576 l 231 807 z "},"Ú":{"ha":926,"x_min":115,"x_max":922,"o":"m 461 1153 l 692 1153 l 692 1038 l 576 1038 l 576 922 l 346 922 l 346 1038 l 461 1038 l 461 1153 m 231 807 l 461 807 l 461 576 l 346 576 l 346 115 l 576 115 l 576 231 l 692 231 l 692 807 l 922 807 l 922 231 l 807 231 l 807 115 l 692 115 l 692 0 l 231 0 l 231 115 l 115 115 l 115 576 l 231 576 l 231 807 z "},"Û":{"ha":926,"x_min":115,"x_max":922,"o":"m 461 1153 l 807 1153 l 807 1038 l 922 1038 l 922 922 l 692 922 l 692 1038 l 576 1038 l 576 922 l 346 922 l 346 1038 l 461 1038 l 461 1153 m 231 807 l 461 807 l 461 576 l 346 576 l 346 115 l 576 115 l 576 231 l 692 231 l 692 807 l 922 807 l 922 231 l 807 231 l 807 115 l 692 115 l 692 0 l 231 0 l 231 115 l 115 115 l 115 576 l 231 576 l 231 807 z "},"Ü":{"ha":926,"x_min":115,"x_max":922,"o":"m 231 1153 l 461 1153 l 461 1038 l 231 1038 l 231 1153 m 576 1153 l 807 1153 l 807 1038 l 576 1038 l 576 1153 m 231 922 l 461 922 l 461 576 l 346 576 l 346 115 l 576 115 l 576 231 l 692 231 l 692 922 l 922 922 l 922 231 l 807 231 l 807 115 l 692 115 l 692 0 l 231 0 l 231 115 l 115 115 l 115 692 l 231 692 l 231 922 z "},"ß":{"ha":926,"x_min":115,"x_max":922,"o":"m 346 922 l 807 922 l 807 807 l 922 807 l 922 576 l 807 576 l 807 461 l 922 461 l 922 115 l 807 115 l 807 0 l 461 0 l 461 115 l 346 115 l 346 0 l 231 0 l 231 -115 l 115 -115 l 115 115 l 231 115 l 231 692 l 346 692 l 346 922 m 461 807 l 461 576 l 692 576 l 692 807 l 461 807 m 461 461 l 461 231 l 576 231 l 576 115 l 692 115 l 692 461 l 461 461 z "},"à":{"ha":926,"x_min":115,"x_max":922,"o":"m 346 1038 l 576 1038 l 576 922 l 692 922 l 692 807 l 461 807 l 461 922 l 346 922 l 346 1038 m 346 692 l 692 692 l 692 576 l 807 576 l 807 115 l 922 115 l 922 0 l 692 0 l 692 115 l 576 115 l 576 0 l 231 0 l 231 115 l 115 115 l 115 346 l 231 346 l 231 461 l 576 461 l 576 576 l 346 576 l 346 692 m 346 346 l 346 115 l 461 115 l 461 231 l 576 231 l 576 346 l 346 346 z "},"â":{"ha":926,"x_min":115,"x_max":922,"o":"m 346 1038 l 692 1038 l 692 922 l 807 922 l 807 807 l 576 807 l 576 922 l 461 922 l 461 807 l 231 807 l 231 922 l 346 922 l 346 1038 m 346 692 l 692 692 l 692 576 l 807 576 l 807 115 l 922 115 l 922 0 l 692 0 l 692 115 l 576 115 l 576 0 l 231 0 l 231 115 l 115 115 l 115 346 l 231 346 l 231 461 l 576 461 l 576 576 l 346 576 l 346 692 m 346 346 l 346 115 l 461 115 l 461 231 l 576 231 l 576 346 l 346 346 z "},"ä":{"ha":926,"x_min":115,"x_max":922,"o":"m 231 1038 l 461 1038 l 461 922 l 231 922 l 231 1038 m 576 1038 l 807 1038 l 807 922 l 576 922 l 576 1038 m 346 692 l 692 692 l 692 576 l 807 576 l 807 115 l 922 115 l 922 0 l 692 0 l 692 115 l 576 115 l 576 0 l 231 0 l 231 115 l 115 115 l 115 346 l 231 346 l 231 461 l 576 461 l 576 576 l 346 576 l 346 692 m 346 346 l 346 115 l 461 115 l 461 231 l 576 231 l 576 346 l 346 346 z "},"ç":{"ha":926,"x_min":115,"x_max":922,"o":"m 231 807 l 807 807 l 807 692 l 922 692 l 922 576 l 692 576 l 692 692 l 461 692 l 461 576 l 346 576 l 346 231 l 692 231 l 692 346 l 922 346 l 922 231 l 807 231 l 807 115 l 576 115 l 576 0 l 692 0 l 692 -115 l 576 -115 l 576 -231 l 231 -231 l 231 -115 l 461 -115 l 461 0 l 346 0 l 346 115 l 231 115 l 231 231 l 115 231 l 115 692 l 231 692 l 231 807 z "},"è":{"ha":808,"x_min":115,"x_max":807,"o":"m 346 1038 l 576 1038 l 576 922 l 692 922 l 692 807 l 461 807 l 461 922 l 346 922 l 346 1038 m 231 692 l 692 692 l 692 576 l 807 576 l 807 346 l 346 346 l 346 115 l 576 115 l 576 231 l 807 231 l 807 115 l 692 115 l 692 0 l 231 0 l 231 115 l 115 115 l 115 576 l 231 576 l 231 692 m 346 576 l 346 461 l 576 461 l 576 576 l 346 576 z "},"é":{"ha":808,"x_min":115,"x_max":807,"o":"m 461 1038 l 692 1038 l 692 922 l 576 922 l 576 807 l 346 807 l 346 922 l 461 922 l 461 1038 m 231 692 l 692 692 l 692 576 l 807 576 l 807 346 l 346 346 l 346 115 l 576 115 l 576 231 l 807 231 l 807 115 l 692 115 l 692 0 l 231 0 l 231 115 l 115 115 l 115 576 l 231 576 l 231 692 m 346 576 l 346 461 l 576 461 l 576 576 l 346 576 z "},"ê":{"ha":808,"x_min":115,"x_max":807,"o":"m 346 1038 l 692 1038 l 692 922 l 807 922 l 807 807 l 576 807 l 576 922 l 461 922 l 461 807 l 231 807 l 231 922 l 346 922 l 346 1038 m 231 692 l 692 692 l 692 576 l 807 576 l 807 346 l 346 346 l 346 115 l 576 115 l 576 231 l 807 231 l 807 115 l 692 115 l 692 0 l 231 0 l 231 115 l 115 115 l 115 576 l 231 576 l 231 692 m 346 576 l 346 461 l 576 461 l 576 576 l 346 576 z "},"î":{"ha":579,"x_min":115,"x_max":576,"o":"m 231 1038 l 461 1038 l 461 922 l 576 922 l 576 807 l 461 807 l 461 922 l 231 922 l 231 807 l 115 807 l 115 922 l 231 922 l 231 1038 m 231 692 l 461 692 l 461 346 l 346 346 l 346 115 l 461 115 l 461 0 l 231 0 l 231 115 l 115 115 l 115 346 l 231 346 l 231 692 z "},"ï":{"ha":579,"x_min":115,"x_max":576,"o":"m 115 1038 l 231 1038 l 231 922 l 115 922 l 115 1038 m 346 1038 l 461 1038 l 461 922 l 346 922 l 346 1038 m 115 807 l 346 807 l 346 346 l 461 346 l 461 231 l 576 231 l 576 115 l 231 115 l 231 231 l 115 231 l 115 807 z "},"ô":{"ha":926,"x_min":115,"x_max":922,"o":"m 346 1038 l 692 1038 l 692 922 l 807 922 l 807 807 l 576 807 l 576 922 l 461 922 l 461 807 l 231 807 l 231 922 l 346 922 l 346 1038 m 346 692 l 807 692 l 807 576 l 922 576 l 922 231 l 807 231 l 807 115 l 692 115 l 692 0 l 231 0 l 231 115 l 115 115 l 115 461 l 231 461 l 231 576 l 346 576 l 346 692 m 461 576 l 461 461 l 346 461 l 346 115 l 576 115 l 576 231 l 692 231 l 692 576 l 461 576 z "},"ö":{"ha":926,"x_min":115,"x_max":922,"o":"m 231 1038 l 461 1038 l 461 922 l 231 922 l 231 1038 m 576 1038 l 807 1038 l 807 922 l 576 922 l 576 1038 m 346 692 l 807 692 l 807 576 l 922 576 l 922 231 l 807 231 l 807 115 l 692 115 l 692 0 l 231 0 l 231 115 l 115 115 l 115 461 l 231 461 l 231 576 l 346 576 l 346 692 m 461 576 l 461 461 l 346 461 l 346 115 l 576 115 l 576 231 l 692 231 l 692 576 l 461 576 z "},"ù":{"ha":926,"x_min":115,"x_max":922,"o":"m 346 1038 l 576 1038 l 576 922 l 692 922 l 692 807 l 461 807 l 461 922 l 346 922 l 346 1038 m 115 692 l 346 692 l 346 115 l 576 115 l 576 576 l 807 576 l 807 231 l 922 231 l 922 0 l 807 0 l 807 115 l 692 115 l 692 0 l 231 0 l 231 115 l 115 115 l 115 692 z "},"û":{"ha":926,"x_min":115,"x_max":922,"o":"m 346 1038 l 692 1038 l 692 922 l 807 922 l 807 807 l 576 807 l 576 922 l 461 922 l 461 807 l 231 807 l 231 922 l 346 922 l 346 1038 m 115 692 l 346 692 l 346 115 l 576 115 l 576 576 l 807 576 l 807 231 l 922 231 l 922 0 l 807 0 l 807 115 l 692 115 l 692 0 l 231 0 l 231 115 l 115 115 l 115 692 z "},"ü":{"ha":926,"x_min":115,"x_max":922,"o":"m 231 1038 l 461 1038 l 461 922 l 231 922 l 231 1038 m 576 1038 l 807 1038 l 807 922 l 576 922 l 576 1038 m 115 692 l 346 692 l 346 115 l 576 115 l 576 576 l 807 576 l 807 231 l 922 231 l 922 0 l 807 0 l 807 115 l 692 115 l 692 0 l 231 0 l 231 115 l 115 115 l 115 692 z "},"‘":{"ha":461,"x_min":231,"x_max":461,"o":"m 231 1153 l 461 1153 l 461 922 l 346 922 l 346 807 l 461 807 l 461 692 l 346 692 l 346 807 l 231 807 l 231 1153 z "},"’":{"ha":461,"x_min":231,"x_max":461,"o":"m 231 1153 l 461 1153 l 461 807 l 346 807 l 346 692 l 231 692 l 231 807 l 346 807 l 346 922 l 231 922 l 231 1153 z "},"“":{"ha":926,"x_min":231,"x_max":807,"o":"m 231 1038 l 346 1038 l 346 807 l 461 807 l 461 576 l 346 576 l 346 692 l 231 692 l 231 1038 m 576 1038 l 692 1038 l 692 807 l 807 807 l 807 576 l 692 576 l 692 692 l 576 692 l 576 1038 z "},"”":{"ha":926,"x_min":115,"x_max":692,"o":"m 231 1038 l 346 1038 l 346 692 l 231 692 l 231 576 l 115 576 l 115 807 l 231 807 l 231 1038 m 576 1038 l 692 1038 l 692 692 l 576 692 l 576 576 l 461 576 l 461 807 l 576 807 l 576 1038 z "},"•":{"ha":926,"x_min":346,"x_max":576,"o":"m 346 461 l 576 461 l 576 231 l 346 231 l 346 461 z "},"…":{"ha":926,"x_min":231,"x_max":807,"o":"m 231 461 l 346 461 l 346 231 l 231 231 l 231 461 m 461 461 l 576 461 l 576 231 l 461 231 l 461 461 m 692 461 l 807 461 l 807 231 l 692 231 l 692 461 z "}}}
